<svg xmlns="http://www.w3.org/2000/svg" xmlns:xlink="http://www.w3.org/1999/xlink" width="250" zoomAndPan="magnify" viewBox="0 0 187.5 187.499992" height="250" preserveAspectRatio="xMidYMid meet" version="1.2"><defs/><g id="f6abc4a242"><g style="fill:#4f6096;fill-opacity:0.302;"><g transform="translate(11.546847, 137.885981)"><path style="stroke:none" d="M 75.625 0 L 67.921875 -20.640625 L 25.859375 -20.640625 L 18.15625 0 L 4.578125 0 L 36.84375 -86.859375 L 57.078125 -86.859375 L 89.34375 0 Z M 29.90625 -31.484375 L 63.875 -31.484375 L 46.890625 -77.328125 Z M 29.90625 -31.484375 "/></g></g><g style="fill:#4f6096;fill-opacity:0.302;"><g transform="translate(105.071028, 137.885981)"><path style="stroke:none" d="M 21.9375 -10.84375 L 74.453125 -10.84375 L 74.453125 0 L 8.484375 0 L 8.484375 -86.859375 L 74.0625 -86.859375 L 74.0625 -76.03125 L 21.9375 -76.03125 L 21.9375 -49.765625 L 70.140625 -49.765625 L 70.140625 -39.1875 L 21.9375 -39.1875 Z M 21.9375 -10.84375 "/></g></g><g style="fill:#4f6096;fill-opacity:0.502;"><g transform="translate(5.773426, 132.112557)"><path style="stroke:none" d="M 75.625 0 L 67.921875 -20.640625 L 25.859375 -20.640625 L 18.15625 0 L 4.578125 0 L 36.84375 -86.859375 L 57.078125 -86.859375 L 89.34375 0 Z M 29.90625 -31.484375 L 63.875 -31.484375 L 46.890625 -77.328125 Z M 29.90625 -31.484375 "/></g></g><g style="fill:#4f6096;fill-opacity:0.502;"><g transform="translate(99.297606, 132.112557)"><path style="stroke:none" d="M 21.9375 -10.84375 L 74.453125 -10.84375 L 74.453125 0 L 8.484375 0 L 8.484375 -86.859375 L 74.0625 -86.859375 L 74.0625 -76.03125 L 21.9375 -76.03125 L 21.9375 -49.765625 L 70.140625 -49.765625 L 70.140625 -39.1875 L 21.9375 -39.1875 Z M 21.9375 -10.84375 "/></g></g><g style="fill:#bfceff;fill-opacity:1;"><g transform="translate(0.000004, 126.339136)"><path style="stroke:none" d="M 75.625 0 L 67.921875 -20.640625 L 25.859375 -20.640625 L 18.15625 0 L 4.578125 0 L 36.84375 -86.859375 L 57.078125 -86.859375 L 89.34375 0 Z M 29.90625 -31.484375 L 63.875 -31.484375 L 46.890625 -77.328125 Z M 29.90625 -31.484375 "/></g></g><g style="fill:#bfceff;fill-opacity:1;"><g transform="translate(93.524184, 126.339136)"><path style="stroke:none" d="M 21.9375 -10.84375 L 74.453125 -10.84375 L 74.453125 0 L 8.484375 0 L 8.484375 -86.859375 L 74.0625 -86.859375 L 74.0625 -76.03125 L 21.9375 -76.03125 L 21.9375 -49.765625 L 70.140625 -49.765625 L 70.140625 -39.1875 L 21.9375 -39.1875 Z M 21.9375 -10.84375 "/></g></g></g></svg>